<?xml version="1.0" encoding="UTF-8" ?>
<!DOCTYPE svg PUBLIC "-//W3C//DTD SVG 1.1//EN" "http://www.w3.org/Graphics/SVG/1.1/DTD/svg11.dtd">
<svg width="640pt" height="640pt" viewBox="0 0 640 640" version="1.1" xmlns="http://www.w3.org/2000/svg">
<g id="#4056a1ff">
<path fill="#4056a1" opacity="1.00" d=" M 121.64 0.00 L 518.35 0.00 C 540.42 1.40 562.25 8.06 580.85 20.12 C 606.99 36.69 626.68 63.09 635.10 92.88 C 637.89 102.23 639.19 111.95 640.00 121.65 L 640.00 519.35 C 638.69 535.44 634.96 551.40 628.04 566.03 C 614.21 595.90 588.42 620.00 557.59 631.61 C 545.07 636.52 531.73 638.99 518.35 640.00 L 121.65 640.00 C 88.62 638.18 56.44 623.41 34.10 598.93 C 13.86 577.43 2.04 548.70 0.00 519.35 L 0.00 120.66 C 0.38 116.50 0.93 112.36 1.53 108.23 C 6.03 78.57 21.55 50.81 44.24 31.23 C 65.62 12.54 93.35 1.64 121.64 0.00 M 158.01 142.05 C 146.40 149.15 136.42 160.49 134.62 174.41 C 133.50 184.87 133.71 196.01 138.36 205.67 C 141.18 211.89 146.04 216.78 150.36 221.95 C 149.55 230.34 147.68 238.59 146.97 246.99 C 146.15 256.99 144.77 266.96 144.75 277.02 C 144.68 289.36 144.47 301.72 145.08 314.06 C 146.20 326.48 147.02 338.96 149.61 351.18 C 150.43 360.49 153.67 369.29 155.56 378.39 C 156.84 384.46 159.32 390.17 161.06 396.11 C 163.66 404.63 167.88 412.50 171.27 420.71 C 173.27 425.49 176.13 429.83 178.69 434.32 C 194.21 460.98 217.37 483.40 245.38 496.59 C 253.25 501.23 262.30 502.91 270.76 506.13 C 279.79 509.26 289.35 510.30 298.79 511.45 C 315.24 513.80 331.96 512.16 348.21 509.13 C 356.63 507.39 364.67 504.28 372.87 501.78 C 379.34 499.81 385.03 496.07 390.99 492.98 C 407.17 484.66 420.02 471.46 432.54 458.54 C 445.05 443.86 456.14 427.85 464.25 410.30 C 468.75 402.31 471.42 393.51 474.98 385.09 C 478.71 375.85 480.36 365.98 483.41 356.52 C 484.97 351.36 485.65 346.00 486.72 340.73 C 488.30 331.86 490.28 323.02 490.35 313.96 C 491.44 305.58 491.29 297.14 491.64 288.72 C 496.50 285.32 501.67 282.14 505.43 277.47 C 510.47 271.08 514.40 263.60 515.44 255.45 C 516.94 243.34 516.08 230.20 509.22 219.73 C 501.41 208.93 489.38 200.84 476.03 199.13 C 468.05 198.79 459.70 198.22 452.12 201.23 C 437.17 207.32 424.97 220.85 422.14 236.95 C 421.57 242.88 421.50 248.92 422.40 254.82 C 424.70 264.43 428.70 274.07 436.30 280.70 C 440.96 286.05 447.31 289.22 453.63 292.15 C 453.11 297.06 452.91 302.00 452.61 306.93 C 451.28 323.69 447.23 340.07 443.48 356.42 C 440.93 365.50 437.20 374.21 434.14 383.13 C 424.76 405.12 411.64 425.73 394.39 442.38 C 384.02 452.27 371.71 459.95 358.59 465.63 C 348.67 469.34 338.17 471.08 327.76 472.83 C 312.78 474.86 297.67 472.43 283.09 468.97 C 263.98 464.37 246.53 454.10 232.07 440.92 C 219.18 427.65 209.74 411.35 202.54 394.40 C 193.11 373.85 188.49 351.53 184.75 329.37 C 182.29 305.21 182.46 280.79 184.77 256.62 C 185.99 248.36 187.35 240.12 188.83 231.90 C 198.05 230.28 206.52 225.70 213.39 219.41 C 222.36 210.57 227.28 198.37 228.91 186.03 C 229.65 176.38 226.38 166.73 221.46 158.53 C 214.34 148.43 203.93 139.92 191.59 137.43 C 180.34 134.86 168.13 136.47 158.01 142.05 Z" />
</g>
<g id="#ffffffff">
<path fill="#ffffff" opacity="1.00" d=" M 158.01 142.05 C 168.13 136.47 180.34 134.86 191.59 137.43 C 203.93 139.92 214.34 148.43 221.46 158.53 C 226.38 166.73 229.65 176.38 228.91 186.03 C 227.28 198.37 222.36 210.57 213.39 219.41 C 206.52 225.70 198.05 230.28 188.83 231.90 C 187.35 240.12 185.99 248.36 184.77 256.62 C 182.46 280.79 182.29 305.21 184.75 329.37 C 188.49 351.53 193.11 373.85 202.54 394.40 C 209.74 411.35 219.18 427.65 232.07 440.92 C 246.53 454.10 263.98 464.37 283.09 468.97 C 297.67 472.43 312.78 474.86 327.76 472.83 C 338.17 471.08 348.67 469.34 358.59 465.63 C 371.71 459.95 384.02 452.27 394.39 442.38 C 411.64 425.73 424.76 405.12 434.14 383.13 C 437.20 374.21 440.93 365.50 443.48 356.42 C 447.23 340.07 451.28 323.69 452.61 306.93 C 452.91 302.00 453.11 297.06 453.63 292.15 C 447.31 289.22 440.96 286.05 436.30 280.70 C 428.70 274.07 424.70 264.43 422.40 254.82 C 421.50 248.92 421.57 242.88 422.14 236.95 C 424.97 220.85 437.17 207.32 452.12 201.23 C 459.70 198.22 468.05 198.79 476.03 199.13 C 489.38 200.84 501.41 208.93 509.22 219.73 C 516.08 230.20 516.94 243.34 515.44 255.45 C 514.40 263.60 510.47 271.08 505.43 277.47 C 501.67 282.14 496.50 285.32 491.64 288.72 C 491.29 297.14 491.44 305.58 490.35 313.96 C 490.28 323.02 488.30 331.86 486.72 340.73 C 485.65 346.00 484.97 351.36 483.41 356.52 C 480.36 365.98 478.71 375.85 474.98 385.09 C 471.42 393.51 468.75 402.31 464.25 410.30 C 456.14 427.85 445.05 443.86 432.54 458.54 C 420.02 471.46 407.17 484.66 390.99 492.98 C 385.03 496.07 379.34 499.81 372.87 501.78 C 364.67 504.28 356.63 507.39 348.21 509.13 C 331.96 512.16 315.24 513.80 298.79 511.45 C 289.35 510.30 279.79 509.26 270.76 506.13 C 262.30 502.91 253.25 501.23 245.38 496.59 C 217.37 483.40 194.21 460.98 178.69 434.32 C 176.13 429.83 173.27 425.49 171.27 420.71 C 167.88 412.50 163.66 404.63 161.06 396.11 C 159.32 390.17 156.84 384.46 155.56 378.39 C 153.67 369.29 150.43 360.49 149.61 351.18 C 147.02 338.96 146.20 326.48 145.08 314.06 C 144.47 301.72 144.68 289.36 144.75 277.02 C 144.77 266.96 146.15 256.99 146.97 246.99 C 147.68 238.59 149.55 230.34 150.36 221.95 C 146.04 216.78 141.18 211.89 138.36 205.67 C 133.71 196.01 133.50 184.87 134.62 174.41 C 136.42 160.49 146.40 149.15 158.01 142.05 Z" />
</g>
</svg>
